<svg fill="#555" height="24" width="24" xmlns="http://www.w3.org/2000/svg">
  <defs>
    <style>
      g { display: none; }
      g:target { display: inline; }
    </style>
  </defs>
  <g id="hamburger">
    <rect x="1" y="3" width="22" height="3"/>
    <rect x="1" y="11" width="22" height="3"/>
    <rect x="1" y="19" width="22" height="3"/>
  </g>
  <g id="close_white">
    <path d="M14.56 12 l8.91 -8.91 c0.71 -0.71 0.71 -1.85 0 -2.56 -0.71 -0.71 -1.85 -0.71 -2.56 0 l-8.91 8.91 -8.91 -8.91 c-0.71 -0.71 -1.85 -0.71 -2.56 0 -0.71 0.71 -0.71 1.85 0 2.56 l8.91 8.91 -8.91 8.91 c-0.71 0.71 -0.71 1.85 0 2.56 0.35 0.35 0.82 0.53 1.28 0.53 0.46 0 0.93 -0.18 1.28 -0.53 l8.91 -8.91 8.91 8.91 c0.35 0.35 0.82 0.53 1.28 0.53 0.46 0 0.93 -0.18 1.28 -0.53 0.71 -0.71 0.71 -1.85 0 -2.56 l-8.91 -8.91 z" fill="#fff" />
  </g>
  <g id="posts">
    <path d="M19,3 h-4.18 C14.4,1.84,13.3,1,12,1 c-1.3,0,-2.4,0.84,-2.82,2 h-4.18 c-1,0 -2,1 -2,2 v14 c0,1.1,0.9,2,2,2 h14 c1,0 2,-1 2,-2 v-14 c0,-1 -1,-2 -2,-2 z M12,3 c0.55,0 1,0.45 1,1 s-0.45,1 -1,1 -1,-0.45 -1,-1 0.45,-1 1,-1 z M14,17 h-7 v-2 h7 v2 z M17,13 h-10 v-2 h10 v2 z M17,9 h-10 v-2 h10 v2 z" />
  </g>
  <g id="portfolio">
    <path d="M10,16 v-1 h-7 v4 c0,1 1,2 2,2 h14 c1,0 2,-1 2,-2 v-4 h-7 v1 h-4 z M20,7 h-4 v-2 l-2,-2 h-4 l-2,2 v2 h-4 c-1,0 -2,1 -2,2 v3 c0,1 1,2 2,2 h6 v-2 h4 v2 h6 c1,0 2,-1 2,-2 v-3 c0-1.1-.9-2-2-2 z M14,7 h-4 v-2 h4 v2 z" />
  </g>
  <g id="github">
    <path d="M13.84,16.66 c2.39,-0.21 4.86,-1.19 4.86,-5.15 c0,-1.19 -0.45,-2.05 -1.06,-2.89 c0.19,-0.24 0.46,-1.34 -0.16,-2.71 c0,0 -0.86,-0.29 -2.88,1.09 c-0.86,-0.28 -1.79,-0.31 -2.69,-0.31 c-0.89,0 -1.81,0.13 -2.62,0.31 c-2.09,-1.38 -2.87,-1.09 -2.87,-1.09 c-0.57,1.47 -0.28,2.47 -0.16,2.71 c-0.69,0.72 -1.04,1.61 -1.04,2.89 c0,4.01 2.47,4.89 4.86,5.15 c-0.25,0.23 -0.57,0.77 -0.66,1.41 c-0.56,0.26 -2.15,0.77 -3.06,-0.85 c0,0 -0.51,-0.96 -1.53,-1.09 c0,0 -1.05,-0.04 -0.04,0.65 c0,0 0.75,0.32 1.13,1.59 c0,0 0.65,2.07 3.51,1.35 v1.83 c0,0.24 -0.24,0.56 -0.72,0.59 C4.56,20.57 1.55,16.64 1.55,11.99 c0,-5.83 4.65,-10.51 10.56,-10.51 c5.71,0 10.58,4.65 10.44,10.51 c0,4.65 -2.99,8.54 -7.13,9.95 c-0.56,0.19 -0.77,-0.24 -0.77,-0.59 V18.59 C14.53,17.57 14.25,16.92 13.84,16.66 L13.84 16.66 z M24,12.01 C24,5.39 18.63,0 12.01,0 C5.39,0 0,5.39 0,12.01 C0,18.63 5.39,24 12.01,24 C18.63,24 24,18.63 24,12.01 L24 12.01 z" />
  </g>
  <g id="rss">
    <path d="M7.18,19.26 c0,0.66 -0.23,1.23 -0.70,1.69 c-0.47,0.47 -1.03,0.70 -1.69,0.70 s-1.23 -0.23 -1.69 -0.70 c-0.47,-0.47 -0.70,-1.03 -0.70,-1.69 c0,-0.66 0.23,-1.23 0.70,-1.69 s1.03 -0.70 1.69 -0.70 s1.23 0.23 1.69 0.70 C6.95,18.03 7.18,18.59 7.18,19.26 z M13.56,20.79 c0.02,0.23 -0.05,0.43 -0.21,0.60 c-0.15,0.18 -0.34,0.26 -0.59,0.26 h-1.68 c-0.21,0 -0.39,-0.07 -0.54,-0.20 c-0.15,-0.14 -0.23,-0.31 -0.25,-0.52 c-0.18,-1.90 -0.95,-3.53 -2.30,-4.88 s-2.98 -2.12 -4.88 -2.30 c-0.21,-0.02 -0.38,-0.10 -0.52,-0.25 c-0.14,-0.15 -0.20,-0.33 -0.20,-0.54 V11.28 c0,-0.24 0.09,-0.44 0.26,-0.59 c0.14,-0.14 0.32,-0.21 0.54,-0.21 h0.06 c1.33,0.11 2.60,0.44 3.81,1 c1.21,0.56 2.29,1.31 3.23,2.26 c0.95,0.94 1.70,2.01 2.26,3.23 C13.12,18.19 13.45,19.46 13.56,20.79 z M19.94,20.82 c0.02,0.22 -0.06,0.42 -0.22,0.59 c-0.15,0.17 -0.34,0.25 -0.57,0.25 h-1.78 c-0.22,0 -0.40,-0.07 -0.55,-0.22 s-0.23 -0.32 -0.24 -0.53 c-0.10,-1.79 -0.52,-3.49 -1.26,-5.09 c-0.74,-1.61 -1.70,-3 -2.89,-4.19 s-2.58 -2.15 -4.19 -2.89 S4.93 7.57 3.14 7.46 c-0.21,-0.01 -0.38,-0.09 -0.53,-0.24 s-0.22 -0.34 -0.22 -0.54 v-1.78 c0,-0.23 0.08,-0.42 0.25,-0.57 c0.15,-0.15 0.33,-0.22 0.55,-0.22 h0.04 c2.18,0.11 4.26,0.61 6.25,1.50 s3.76 2.11 5.30 3.66 c1.55,1.54 2.77,3.31 3.66,5.30 C19.34,16.55 19.83,18.64 19.94,20.82 z" />
  </g>
  <g id="email">
    <path d="M20,4 h-16 c-1,0 -2,1 -2,2 v12 c0,1 1,2 2,2 h16 c1,0 2,-1 2,-2 v-12 c0,-1 -1,-2 -2,-2 z m0,4 l-8,5 -8,-5 v-2 l8,5 8,-5 v2 z" />
  </g>

  <g id="posts_white">
    <path d="M19,3 h-4.18 C14.4,1.84,13.3,1,12,1 c-1.3,0,-2.4,0.84,-2.82,2 h-4.18 c-1,0 -2,1 -2,2 v14 c0,1.1,0.9,2,2,2 h14 c1,0 2,-1 2,-2 v-14 c0,-1 -1,-2 -2,-2 z M12,3 c0.55,0 1,0.45 1,1 s-0.45,1 -1,1 -1,-0.45 -1,-1 0.45,-1 1,-1 z M14,17 h-7 v-2 h7 v2 z M17,13 h-10 v-2 h10 v2 z M17,9 h-10 v-2 h10 v2 z" fill="#fff" />
  </g>
  <g id="portfolio_white">
    <path d="M10,16 v-1 h-7 v4 c0,1 1,2 2,2 h14 c1,0 2,-1 2,-2 v-4 h-7 v1 h-4 z M20,7 h-4 v-2 l-2,-2 h-4 l-2,2 v2 h-4 c-1,0 -2,1 -2,2 v3 c0,1 1,2 2,2 h6 v-2 h4 v2 h6 c1,0 2,-1 2,-2 v-3 c0-1.1-.9-2-2-2 z M14,7 h-4 v-2 h4 v2 z" fill="#fff" />
  </g>
  <g id="github_white">
    <path d="M13.84,16.66 c2.39,-0.21 4.86,-1.19 4.86,-5.15 c0,-1.19 -0.45,-2.05 -1.06,-2.89 c0.19,-0.24 0.46,-1.34 -0.16,-2.71 c0,0 -0.86,-0.29 -2.88,1.09 c-0.86,-0.28 -1.79,-0.31 -2.69,-0.31 c-0.89,0 -1.81,0.13 -2.62,0.31 c-2.09,-1.38 -2.87,-1.09 -2.87,-1.09 c-0.57,1.47 -0.28,2.47 -0.16,2.71 c-0.69,0.72 -1.04,1.61 -1.04,2.89 c0,4.01 2.47,4.89 4.86,5.15 c-0.25,0.23 -0.57,0.77 -0.66,1.41 c-0.56,0.26 -2.15,0.77 -3.06,-0.85 c0,0 -0.51,-0.96 -1.53,-1.09 c0,0 -1.05,-0.04 -0.04,0.65 c0,0 0.75,0.32 1.13,1.59 c0,0 0.65,2.07 3.51,1.35 v1.83 c0,0.24 -0.24,0.56 -0.72,0.59 C4.56,20.57 1.55,16.64 1.55,11.99 c0,-5.83 4.65,-10.51 10.56,-10.51 c5.71,0 10.58,4.65 10.44,10.51 c0,4.65 -2.99,8.54 -7.13,9.95 c-0.56,0.19 -0.77,-0.24 -0.77,-0.59 V18.59 C14.53,17.57 14.25,16.92 13.84,16.66 L13.84 16.66 z M24,12.01 C24,5.39 18.63,0 12.01,0 C5.39,0 0,5.39 0,12.01 C0,18.63 5.39,24 12.01,24 C18.63,24 24,18.63 24,12.01 L24 12.01 z" fill="#fff" />
  </g>
  <g id="rss_white">
    <path d="M7.18,19.26 c0,0.66 -0.23,1.23 -0.70,1.69 c-0.47,0.47 -1.03,0.70 -1.69,0.70 s-1.23 -0.23 -1.69 -0.70 c-0.47,-0.47 -0.70,-1.03 -0.70,-1.69 c0,-0.66 0.23,-1.23 0.70,-1.69 s1.03 -0.70 1.69 -0.70 s1.23 0.23 1.69 0.70 C6.95,18.03 7.18,18.59 7.18,19.26 z M13.56,20.79 c0.02,0.23 -0.05,0.43 -0.21,0.60 c-0.15,0.18 -0.34,0.26 -0.59,0.26 h-1.68 c-0.21,0 -0.39,-0.07 -0.54,-0.20 c-0.15,-0.14 -0.23,-0.31 -0.25,-0.52 c-0.18,-1.90 -0.95,-3.53 -2.30,-4.88 s-2.98 -2.12 -4.88 -2.30 c-0.21,-0.02 -0.38,-0.10 -0.52,-0.25 c-0.14,-0.15 -0.20,-0.33 -0.20,-0.54 V11.28 c0,-0.24 0.09,-0.44 0.26,-0.59 c0.14,-0.14 0.32,-0.21 0.54,-0.21 h0.06 c1.33,0.11 2.60,0.44 3.81,1 c1.21,0.56 2.29,1.31 3.23,2.26 c0.95,0.94 1.70,2.01 2.26,3.23 C13.12,18.19 13.45,19.46 13.56,20.79 z M19.94,20.82 c0.02,0.22 -0.06,0.42 -0.22,0.59 c-0.15,0.17 -0.34,0.25 -0.57,0.25 h-1.78 c-0.22,0 -0.40,-0.07 -0.55,-0.22 s-0.23 -0.32 -0.24 -0.53 c-0.10,-1.79 -0.52,-3.49 -1.26,-5.09 c-0.74,-1.61 -1.70,-3 -2.89,-4.19 s-2.58 -2.15 -4.19 -2.89 S4.93 7.57 3.14 7.46 c-0.21,-0.01 -0.38,-0.09 -0.53,-0.24 s-0.22 -0.34 -0.22 -0.54 v-1.78 c0,-0.23 0.08,-0.42 0.25,-0.57 c0.15,-0.15 0.33,-0.22 0.55,-0.22 h0.04 c2.18,0.11 4.26,0.61 6.25,1.50 s3.76 2.11 5.30 3.66 c1.55,1.54 2.77,3.31 3.66,5.30 C19.34,16.55 19.83,18.64 19.94,20.82 z" fill="#fff" />
  </g>
  <g id="email_white">
    <path d="M20,4 h-16 c-1,0 -2,1 -2,2 v12 c0,1 1,2 2,2 h16 c1,0 2,-1 2,-2 v-12 c0,-1 -1,-2 -2,-2 z m0,4 l-8,5 -8,-5 v-2 l8,5 8,-5 v2 z" fill="#fff" />
  </g>
  <g id="category_white">
    <path d="M20.88,5.69 h-9.93 l-2.55,-2.46 h-5.54 c-1.54,0 -2.81,1.27 -2.81,2.81 v11.91 c0,1.54 1.41,2.81 3.12,2.81 h17.71 c1.71,0 3.12,-1.27 3.12,-2.81 V8.5 C24,6.97 22.59,5.69 20.88,5.69 z" fill="#fff" />
  </g>
  <g id="tag_white">
    <path d="M24,0.90 c-0.12,-0.12,-0.32,-0.22,-0.52,-0.22 l-9.46,0.22 C13.19,0.95,12.45,1.27,11.83,1.84 L1.82,11.85 c-0.72,0.72,-1.12,1.72,-1.12,2.71 c0.0,0.92,0.37,1.82,1.05,2.54 l6.12,6.12 c0.70,0.70,1.59,1.02,2.51,1.02 c0.97,0.0,1.97-0.37,2.71-1.12 l9.98-10.01 c0.60-0.60,0.95-1.39,0.95-2.21 l0.22-9.49 C24.22,1.22,24.15,1.05,24,0.90 z M18.77,9.16 c-0.40,0.40-0.97,0.65-1.52,0.65 c-0.52,0.0-1.10-0.25-1.47-0.65 c-0.40-0.35-0.62-0.90-0.62-1.50 c0.0-0.55,0.22-1.10,0.62-1.50 0.10-0.82,2.19-0.20,2.99,0.0 c0.40,0.35,0.62,0.90,0.62,1.50 C19.39,8.19,19.17,8.76,18.77,9.16 z" fill="#fff" />
  </g>
  <g id="category_purple">
    <path d="M20.88,5.69 h-9.93 l-2.55,-2.46 h-5.54 c-1.54,0 -2.81,1.27 -2.81,2.81 v11.91 c0,1.54 1.41,2.81 3.12,2.81 h17.71 c1.71,0 3.12,-1.27 3.12,-2.81 V8.5 C24,6.97 22.59,5.69 20.88,5.69 z" fill="#892d67" />
  </g>
  <g id="tag_pink">
    <path d="M24,0.90 c-0.12,-0.12,-0.32,-0.22,-0.52,-0.22 l-9.46,0.22 C13.19,0.95,12.45,1.27,11.83,1.84 L1.82,11.85 c-0.72,0.72,-1.12,1.72,-1.12,2.71 c0.0,0.92,0.37,1.82,1.05,2.54 l6.12,6.12 c0.70,0.70,1.59,1.02,2.51,1.02 c0.97,0.0,1.97-0.37,2.71-1.12 l9.98-10.01 c0.60-0.60,0.95-1.39,0.95-2.21 l0.22-9.49 C24.22,1.22,24.15,1.05,24,0.90 z M18.77,9.16 c-0.40,0.40-0.97,0.65-1.52,0.65 c-0.52,0.0-1.10-0.25-1.47-0.65 c-0.40-0.35-0.62-0.90-0.62-1.50 c0.0-0.55,0.22-1.10,0.62-1.50 0.10-0.82,2.19-0.20,2.99,0.0 c0.40,0.35,0.62,0.90,0.62,1.50 C19.39,8.19,19.17,8.76,18.77,9.16 z" fill="#e61a75" />
  </g>
  <g fill="#fff" stroke="#fff" id="snoo_white">
     <path d=" M 15.20886,13.9635 c 1.4622,0 2.6472,1.4298 2.6472,3.1944 0,1.7652 -1.185,3.1944 -2.6472,3.1944 -1.4622,0 -2.646,-1.4292 -2.646,-3.1944 C 12.56286,15.3933 13.74666,13.9635 15.20886,13.9635 z M 11.04378,23.67834 c 0.0378,-0.1182 0.0648,-0.2406 0.0648,-0.369 0,-0.8166 -0.8166,-1.4784 -1.824,-1.4784 -1.0074,0 -1.8234,0.6618 -1.8234,1.4784 0,0.1284 0.0264,0.2508 0.0648,0.369 L 11.04378,23.67834 z M 17.43108,23.67834 c 0.0378,-0.1182 0.0642,-0.2406 0.0642,-0.369 0,-0.8166 -0.8166,-1.4784 -1.824,-1.4784 -1.0074,0 -1.8234,0.6618 -1.8234,1.4784 0,0.1284 0.0264,0.2508 0.0642,0.369 L 17.43108,23.67834 z M 7.49328,7.20852 c 0,0.8958 -0.726,1.6212 -1.6218,1.6212 -0.8952,0 -1.6206,-0.7254 -1.6206,-1.6212 0,-0.8958 0.7254,-1.6218 1.6206,-1.6218 C 6.76728,5.58672 7.49328,6.31272 7.49328,7.20852 z M 20.75478,7.20852 c 0,0.8958 -0.726,1.6212 -1.6218,1.6212 -0.8952,0 -1.6206,-0.7254 -1.6206,-1.6212 0,-0.8958 0.7254,-1.6218 1.6206,-1.6218 C 20.02878,5.58672 20.75478,6.31272 20.75478,7.20852 z M 9.7497,13.9635 c 1.4622,0 2.6466,1.4298 2.6466,3.1944 0,1.7652 -1.1844,3.1944 -2.6466,3.1944 -1.4616,0 -2.646,-1.4292 -2.646,-3.1944 C 7.1037,15.3933 8.2881,13.9635 9.7497,13.9635 z M 19.59846,1.78038 c 0,0.7056 -0.5724,1.278 -1.2774,1.278 -0.7068,0 -1.2786,-0.5724 -1.2786,-1.278 0,-0.7062 0.5718,-1.278 1.2786,-1.278 C 19.02606,0.50238 19.59846,1.07418 19.59846,1.78038 z M 19.81056,9.4383 c 0,2.6466 -3.2874,4.7916 -7.3434,4.7916 -4.0554,0 -7.3428,-2.145 -7.3428,-4.7916 0,-2.6466 3.2874,-4.7922 7.3428,-4.7922 C 16.52316,4.6461 19.81056,6.7917 19.81056,9.4383 z" />
     <path d=" M 16.99716,1.51818 L 13.75476,0.75498 L 12.56316,4.52178" style="fill:none" />
     <path d=" M 11.57052,23.68008 13.36452,23.68008 c 1.5936,-0.8292 2.7744,-3.804 2.7744,-7.3566 0,-4.194 -1.644,-7.5936 -3.6714,-7.5936 -2.028,0 -3.6714,3.3996 -3.6714,7.5936 C 8.79612,19.87608 9.97692,22.85088 11.57052,23.68008 z" />
  </g>
  <g fill="#ff7500" stroke="#ff7500" id="snoo_orange">
     <path d=" M 15.20886,13.9635 c 1.4622,0 2.6472,1.4298 2.6472,3.1944 0,1.7652 -1.185,3.1944 -2.6472,3.1944 -1.4622,0 -2.646,-1.4292 -2.646,-3.1944 C 12.56286,15.3933 13.74666,13.9635 15.20886,13.9635 z M 11.04378,23.67834 c 0.0378,-0.1182 0.0648,-0.2406 0.0648,-0.369 0,-0.8166 -0.8166,-1.4784 -1.824,-1.4784 -1.0074,0 -1.8234,0.6618 -1.8234,1.4784 0,0.1284 0.0264,0.2508 0.0648,0.369 L 11.04378,23.67834 z M 17.43108,23.67834 c 0.0378,-0.1182 0.0642,-0.2406 0.0642,-0.369 0,-0.8166 -0.8166,-1.4784 -1.824,-1.4784 -1.0074,0 -1.8234,0.6618 -1.8234,1.4784 0,0.1284 0.0264,0.2508 0.0642,0.369 L 17.43108,23.67834 z M 7.49328,7.20852 c 0,0.8958 -0.726,1.6212 -1.6218,1.6212 -0.8952,0 -1.6206,-0.7254 -1.6206,-1.6212 0,-0.8958 0.7254,-1.6218 1.6206,-1.6218 C 6.76728,5.58672 7.49328,6.31272 7.49328,7.20852 z M 20.75478,7.20852 c 0,0.8958 -0.726,1.6212 -1.6218,1.6212 -0.8952,0 -1.6206,-0.7254 -1.6206,-1.6212 0,-0.8958 0.7254,-1.6218 1.6206,-1.6218 C 20.02878,5.58672 20.75478,6.31272 20.75478,7.20852 z M 9.7497,13.9635 c 1.4622,0 2.6466,1.4298 2.6466,3.1944 0,1.7652 -1.1844,3.1944 -2.6466,3.1944 -1.4616,0 -2.646,-1.4292 -2.646,-3.1944 C 7.1037,15.3933 8.2881,13.9635 9.7497,13.9635 z M 19.59846,1.78038 c 0,0.7056 -0.5724,1.278 -1.2774,1.278 -0.7068,0 -1.2786,-0.5724 -1.2786,-1.278 0,-0.7062 0.5718,-1.278 1.2786,-1.278 C 19.02606,0.50238 19.59846,1.07418 19.59846,1.78038 z M 19.81056,9.4383 c 0,2.6466 -3.2874,4.7916 -7.3434,4.7916 -4.0554,0 -7.3428,-2.145 -7.3428,-4.7916 0,-2.6466 3.2874,-4.7922 7.3428,-4.7922 C 16.52316,4.6461 19.81056,6.7917 19.81056,9.4383 z" />
     <path d=" M 16.99716,1.51818 L 13.75476,0.75498 L 12.56316,4.52178" style="fill:none" />
     <path d=" M 11.57052,23.68008 13.36452,23.68008 c 1.5936,-0.8292 2.7744,-3.804 2.7744,-7.3566 0,-4.194 -1.644,-7.5936 -3.6714,-7.5936 -2.028,0 -3.6714,3.3996 -3.6714,7.5936 C 8.79612,19.87608 9.97692,22.85088 11.57052,23.68008 z" />
  </g>
</svg>
